<svg width="16" height="16" viewBox="0 0 16 16" fill="none" xmlns="http://www.w3.org/2000/svg">
<path d="M2.26074 6.71768C2.26074 7.30387 2.3762 7.88432 2.60053 8.42589C2.82485 8.96746 3.15365 9.45954 3.56815 9.87404C3.98265 10.2885 4.47473 10.6173 5.0163 10.8417C5.55787 11.066 6.13832 11.1814 6.72451 11.1814C7.3107 11.1814 7.89115 11.066 8.43272 10.8417C8.97429 10.6173 9.46637 10.2885 9.88087 9.87404C10.2954 9.45954 10.6242 8.96746 10.8485 8.42589C11.0728 7.88432 11.1883 7.30387 11.1883 6.71768C11.1883 6.13148 11.0728 5.55103 10.8485 5.00946C10.6242 4.4679 10.2954 3.97581 9.88087 3.56131C9.46637 3.14681 8.97429 2.81802 8.43272 2.59369C7.89115 2.36936 7.3107 2.25391 6.72451 2.25391C6.13832 2.25391 5.55787 2.36936 5.0163 2.59369C4.47473 2.81802 3.98265 3.14681 3.56815 3.56131C3.15365 3.97581 2.82485 4.4679 2.60053 5.00946C2.3762 5.55103 2.26074 6.13148 2.26074 6.71768Z" stroke="#F7F7F8" stroke-linecap="round" stroke-linejoin="round"/>
<path d="M13.7392 13.7323L9.91309 9.90625" stroke="#F7F7F8" stroke-linecap="round" stroke-linejoin="round"/>
</svg>
