<svg width="32" height="32" viewBox="0 0 32 32" fill="none" xmlns="http://www.w3.org/2000/svg">
<circle cx="12.215" cy="18.9738" r="9.55874" stroke="#C0DEFF" stroke-width="2"/>
<path fill-rule="evenodd" clip-rule="evenodd" d="M12.4758 8.56965C13.9792 6.1091 16.6901 4.4668 19.7846 4.4668C24.5115 4.4668 28.3434 8.29867 28.3434 13.0255C28.3434 16.8447 25.8419 20.0796 22.3879 21.1811C22.2185 21.9654 21.9607 22.7168 21.6255 23.4243C26.5793 22.5534 30.3434 18.229 30.3434 13.0255C30.3434 7.1941 25.616 2.4668 19.7846 2.4668C15.4639 2.4668 11.7494 5.06197 10.1147 8.77858C10.7933 8.6395 11.4958 8.56646 12.2155 8.56646C12.3025 8.56646 12.3893 8.56753 12.4758 8.56965Z" fill="#C0DEFF"/>
<rect x="12.2148" y="15.918" width="4.32073" height="4.32073" transform="rotate(45 12.2148 15.918)" fill="#C0DEFF"/>
</svg>
