<svg width="32" height="32" viewBox="0 0 32 32" fill="none" xmlns="http://www.w3.org/2000/svg">
<path fill-rule="evenodd" clip-rule="evenodd" d="M16 32C24.8366 32 32 24.8366 32 16C32 7.16344 24.8366 0 16 0C7.16344 0 0 7.16344 0 16C0 24.8366 7.16344 32 16 32ZM12.42 22.6022L16.2638 22.6724C16.2699 22.6724 16.2822 22.6724 16.2821 22.6819C18.4226 22.7218 20.5081 22.5964 22.6426 22.4407C24.3462 22.3216 24.7499 21.0878 24.9609 19.6166C25.2239 17.8398 25.282 16.0415 25.1444 14.2525C25.1378 14.1676 25.1314 14.0821 25.1249 13.9959C24.9967 12.2841 24.8526 10.3603 22.8261 10.0057C22.3949 9.92931 21.9547 9.86222 21.5174 9.84994C17.377 9.71603 13.1998 9.68202 9.05017 9.96904C7.82093 10.0481 7.02605 10.7749 6.82407 11.9929C6.46629 14.1636 6.39289 16.3924 6.58249 18.5813C6.58485 18.6081 6.58721 18.635 6.58958 18.6619C6.72511 20.2018 6.88347 22.0011 8.70769 22.3732C9.68979 22.5771 10.6897 22.5853 11.6915 22.5935C11.9343 22.5955 12.1772 22.5974 12.42 22.6022ZM15.9988 17.8035C15.3367 18.1834 14.673 18.5642 14.004 18.9477V13.4584C14.7418 13.8809 15.4744 14.3015 16.2078 14.7225C17.0642 15.2141 17.9216 15.7064 18.7897 16.2031C17.8555 16.738 16.9287 17.2699 15.9988 17.8035Z" fill="#4DA2FF"/>
</svg>
