<svg width="32" height="32" viewBox="0 0 32 32" fill="none" xmlns="http://www.w3.org/2000/svg">
<circle cx="16" cy="25.7133" r="2.81491" stroke="#C0DEFF" stroke-width="2"/>
<path d="M18.8 25.9056H22.3454C24.4096 25.9056 26.083 24.2322 26.083 22.168V22.168" stroke="#C0DEFF" stroke-width="2"/>
<path d="M25.8863 13.9482C25.8863 12.5947 25.6312 11.2544 25.1356 10.0039C24.64 8.75334 23.9136 7.61709 22.9979 6.65998C22.0821 5.70288 20.995 4.94366 19.7985 4.42568C18.6021 3.90769 17.3197 3.64109 16.0247 3.64109C14.7296 3.64109 13.4473 3.90769 12.2508 4.42568C11.0543 4.94366 9.96721 5.70288 9.05148 6.65999C8.13575 7.61709 7.40935 8.75335 6.91375 10.0039C6.41816 11.2544 6.16309 12.5947 6.16309 13.9482" stroke="#C0DEFF" stroke-width="2"/>
<path d="M23.8127 14.2666C23.8127 13.7143 24.2605 13.2666 24.8127 13.2666H26.0204C27.6772 13.2666 29.0204 14.6097 29.0204 16.2666V19.4483C29.0204 21.1052 27.6772 22.4483 26.0204 22.4483H24.8127C24.2605 22.4483 23.8127 22.0006 23.8127 21.4483V14.2666Z" stroke="#C0DEFF" stroke-width="2"/>
<path d="M2.97949 16.2666C2.97949 14.6097 4.32264 13.2666 5.97949 13.2666H7.18714C7.73942 13.2666 8.18714 13.7143 8.18714 14.2666V21.4483C8.18714 22.0006 7.73942 22.4483 7.18714 22.4483H5.97949C4.32264 22.4483 2.97949 21.1052 2.97949 19.4483V16.2666Z" stroke="#C0DEFF" stroke-width="2"/>
</svg>
