<svg width="32" height="32" viewBox="0 0 32 32" fill="none" xmlns="http://www.w3.org/2000/svg">
<path d="M15.8286 27.5151V15.5742" stroke="#C0DEFF" stroke-width="2"/>
<path d="M15.8286 9.4343L16.2855 8.54478L15.8286 8.31011L15.3717 8.54478L15.8286 9.4343ZM22.0665 12.6383L22.5234 13.5278C22.8568 13.3565 23.0665 13.0131 23.0665 12.6383C23.0665 12.2634 22.8568 11.92 22.5234 11.7487L22.0665 12.6383ZM15.8286 15.8422L15.3717 16.7318L15.8286 16.9664L16.2855 16.7318L15.8286 15.8422ZM9.59073 12.6383L9.13385 11.7487C8.80039 11.92 8.59073 12.2634 8.59073 12.6383C8.59073 13.0131 8.80039 13.3565 9.13385 13.5278L9.59073 12.6383ZM15.3717 10.3238L21.6096 13.5278L22.5234 11.7487L16.2855 8.54478L15.3717 10.3238ZM21.6096 11.7487L15.3717 14.9527L16.2855 16.7318L22.5234 13.5278L21.6096 11.7487ZM16.2855 14.9527L10.0476 11.7487L9.13385 13.5278L15.3717 16.7318L16.2855 14.9527ZM10.0476 13.5278L16.2855 10.3238L15.3717 8.54478L9.13385 11.7487L10.0476 13.5278Z" fill="#C0DEFF"/>
<path d="M22.5571 19.1715L27.4569 21.8852L15.8286 27.8578L4.20029 21.8852L9.05959 19.1715" stroke="#C0DEFF" stroke-width="2" stroke-linejoin="round"/>
<path d="M15.8286 3.79922L27.4569 9.77188L21.6428 12.7582L15.8286 15.7445L10.0145 12.7582L4.20029 9.77188L15.8286 3.79922Z" stroke="#C0DEFF" stroke-width="2" stroke-linejoin="round"/>
<path d="M22.0665 12.6012L22.0665 19.0137L15.8286 22.2176L9.59073 19.0137L9.59073 12.6012" stroke="#C0DEFF" stroke-width="2"/>
<path d="M15.8286 9.73865V4.33008" stroke="#C0DEFF" stroke-width="2"/>
<path d="M4.2002 21.9679V9.88184" stroke="#C0DEFF" stroke-width="2"/>
<path d="M27.457 21.9679V9.88184" stroke="#C0DEFF" stroke-width="2"/>
</svg>
