<svg width="32" height="32" viewBox="0 0 32 32" fill="none" xmlns="http://www.w3.org/2000/svg">
<path d="M18.8804 3.03906V8.79937C18.8804 9.1813 19.0321 9.54759 19.3022 9.81766C19.5722 10.0877 19.9385 10.2394 20.3204 10.2394H26.0808" stroke="#C0DEFF" stroke-width="2" stroke-linecap="round" stroke-linejoin="round"/>
<path d="M23.2008 28.9604H8.80008C8.03621 28.9604 7.30363 28.657 6.7635 28.1169C6.22337 27.5767 5.91992 26.8442 5.91992 26.0803V5.91922C5.91992 5.15535 6.22337 4.42277 6.7635 3.88264C7.30363 3.34251 8.03621 3.03906 8.80008 3.03906H18.8806L26.081 10.2394V26.0803C26.081 26.8442 25.7776 27.5767 25.2374 28.1169C24.6973 28.657 23.9647 28.9604 23.2008 28.9604Z" stroke="#C0DEFF" stroke-width="2" stroke-linecap="round" stroke-linejoin="round"/>
<path d="M11.6797 11.6797H13.1198" stroke="#C0DEFF" stroke-width="2" stroke-linecap="round" stroke-linejoin="round"/>
<path d="M11.6797 17.4404H20.3202" stroke="#C0DEFF" stroke-width="2" stroke-linecap="round" stroke-linejoin="round"/>
<path d="M11.6797 23.2002H20.3202" stroke="#C0DEFF" stroke-width="2" stroke-linecap="round" stroke-linejoin="round"/>
</svg>
