<svg width="32" height="32" viewBox="0 0 32 32" fill="none" xmlns="http://www.w3.org/2000/svg">
<path d="M4 11.9993C4 11.6457 4.14048 11.3066 4.39052 11.0565C4.64057 10.8065 4.97971 10.666 5.33333 10.666H26.6667C27.0203 10.666 27.3594 10.8065 27.6095 11.0565C27.8595 11.3066 28 11.6457 28 11.9993V14.666C28 15.0196 27.8595 15.3588 27.6095 15.6088C27.3594 15.8589 27.0203 15.9993 26.6667 15.9993H5.33333C4.97971 15.9993 4.64057 15.8589 4.39052 15.6088C4.14048 15.3588 4 15.0196 4 14.666V11.9993Z" stroke="#C0DEFF" stroke-width="2" stroke-linecap="round" stroke-linejoin="round"/>
<path d="M16 10.666V27.9993" stroke="#C0DEFF" stroke-width="2" stroke-linecap="round" stroke-linejoin="round"/>
<path d="M25.3332 16V25.3333C25.3332 26.0406 25.0522 26.7189 24.5521 27.219C24.052 27.719 23.3737 28 22.6665 28H9.33317C8.62593 28 7.94765 27.719 7.44755 27.219C6.94746 26.7189 6.6665 26.0406 6.6665 25.3333V16" stroke="#C0DEFF" stroke-width="2" stroke-linecap="round" stroke-linejoin="round"/>
<path d="M9.99984 10.6663C9.11578 10.6663 8.26794 10.3151 7.64281 9.68996C7.01769 9.06484 6.6665 8.21699 6.6665 7.33294C6.6665 6.44888 7.01769 5.60104 7.64281 4.97592C8.26794 4.3508 9.11578 3.99961 9.99984 3.99961C11.2861 3.9772 12.5465 4.60129 13.6168 5.79049C14.6871 6.97969 15.5175 8.67881 15.9998 10.6663C16.4821 8.67881 17.3126 6.97969 18.3829 5.79049C19.4531 4.60129 20.7136 3.9772 21.9998 3.99961C22.8839 3.99961 23.7317 4.3508 24.3569 4.97592C24.982 5.60104 25.3332 6.44888 25.3332 7.33294C25.3332 8.21699 24.982 9.06484 24.3569 9.68996C23.7317 10.3151 22.8839 10.6663 21.9998 10.6663" stroke="#C0DEFF" stroke-width="2" stroke-linecap="round" stroke-linejoin="round"/>
</svg>
