<svg width="32" height="32" viewBox="0 0 32 32" fill="none" xmlns="http://www.w3.org/2000/svg">
<path d="M13.3335 6.66667C13.3335 5.19391 14.5274 4 16.0002 4V4C17.4729 4 18.6668 5.19391 18.6668 6.66667V6.66667C18.6668 8.13943 17.4729 9.33333 16.0002 9.33333V9.33333C14.5274 9.33333 13.3335 8.13943 13.3335 6.66667V6.66667Z" stroke="#C0DEFF" stroke-width="2" stroke-linecap="round" stroke-linejoin="round"/>
<path d="M4 25.3337C4 23.8609 5.19391 22.667 6.66667 22.667V22.667C8.13943 22.667 9.33333 23.8609 9.33333 25.3337V25.3337C9.33333 26.8064 8.13943 28.0003 6.66667 28.0003V28.0003C5.19391 28.0003 4 26.8064 4 25.3337V25.3337Z" stroke="#C0DEFF" stroke-width="2" stroke-linecap="round" stroke-linejoin="round"/>
<path d="M22.6667 25.3337C22.6667 23.8609 23.8607 22.667 25.3334 22.667V22.667C26.8062 22.667 28.0001 23.8609 28.0001 25.3337V25.3337C28.0001 26.8064 26.8062 28.0003 25.3334 28.0003V28.0003C23.8607 28.0003 22.6667 26.8064 22.6667 25.3337V25.3337Z" stroke="#C0DEFF" stroke-width="2" stroke-linecap="round" stroke-linejoin="round"/>
<path d="M9.33325 22.6663L15.9999 17.333L22.6666 22.6663" stroke="#C0DEFF" stroke-width="2" stroke-linecap="round" stroke-linejoin="round"/>
<path d="M16 9.33301V17.333" stroke="#C0DEFF" stroke-width="2" stroke-linecap="round" stroke-linejoin="round"/>
</svg>
