<svg width="32" height="32" viewBox="0 0 32 32" fill="none" xmlns="http://www.w3.org/2000/svg">
<path d="M20 28H8C6.93913 28 5.92172 27.5786 5.17157 26.8284C4.42143 26.0783 4 25.0609 4 24V22.6667H17.3333V25.3333C17.3333 26.0406 17.6143 26.7189 18.1144 27.219C18.6145 27.719 19.2928 28 20 28ZM20 28C20.7072 28 21.3855 27.719 21.8856 27.219C22.3857 26.7189 22.6667 26.0406 22.6667 25.3333V6.66667C22.6667 6.13925 22.8231 5.62368 23.1161 5.18515C23.4091 4.74662 23.8256 4.40482 24.3128 4.20299C24.8001 4.00116 25.3363 3.94835 25.8536 4.05124C26.3709 4.15413 26.846 4.40811 27.2189 4.78105C27.5919 5.15399 27.8459 5.62914 27.9488 6.14643C28.0517 6.66371 27.9988 7.19989 27.797 7.68716C27.5952 8.17443 27.2534 8.5909 26.8149 8.88392C26.3763 9.17694 25.8607 9.33333 25.3333 9.33333H22.6667M25.3333 4H10.6667C9.6058 4 8.58838 4.42143 7.83824 5.17157C7.08809 5.92172 6.66667 6.93914 6.66667 8V22.6667" stroke="#C0DEFF" stroke-width="2" stroke-linecap="round" stroke-linejoin="round"/>
<path d="M12 9.33301H17.3333" stroke="#C0DEFF" stroke-width="2" stroke-linecap="round" stroke-linejoin="round"/>
<path d="M12 14.667H17.3333" stroke="#C0DEFF" stroke-width="2" stroke-linecap="round" stroke-linejoin="round"/>
</svg>
