<svg width="32" height="32" viewBox="0 0 32 32" fill="none" xmlns="http://www.w3.org/2000/svg">
<path d="M4.33179 12.4988C4.33179 13.1177 4.57766 13.7113 5.01532 14.149C5.45299 14.5866 6.04658 14.8325 6.66553 14.8325C7.28447 14.8325 7.87807 14.5866 8.31573 14.149C8.75339 13.7113 8.99927 13.1177 8.99927 12.4988C8.99927 11.8798 8.75339 11.2862 8.31573 10.8486C7.87807 10.4109 7.28447 10.165 6.66553 10.165C6.04658 10.165 5.45299 10.4109 5.01532 10.8486C4.57766 11.2862 4.33179 11.8798 4.33179 12.4988Z" stroke="#C0DEFF" stroke-width="2" stroke-linecap="round" stroke-linejoin="round"/>
<path d="M23.0005 12.4988C23.0005 13.1177 23.2464 13.7113 23.684 14.149C24.1217 14.5866 24.7153 14.8325 25.3342 14.8325C25.9532 14.8325 26.5468 14.5866 26.9844 14.149C27.4221 13.7113 27.668 13.1177 27.668 12.4988C27.668 11.8798 27.4221 11.2862 26.9844 10.8486C26.5468 10.4109 25.9532 10.165 25.3342 10.165C24.7153 10.165 24.1217 10.4109 23.684 10.8486C23.2464 11.2862 23.0005 11.8798 23.0005 12.4988Z" stroke="#C0DEFF" stroke-width="2" stroke-linecap="round" stroke-linejoin="round"/>
<path d="M1.99854 21.8346V20.6677C1.99854 20.0488 2.24441 19.4552 2.68207 19.0175C3.11973 18.5799 3.71333 18.334 4.33228 18.334H8.99976C9.6187 18.334 10.2123 18.5799 10.65 19.0175C11.0876 19.4552 11.3335 20.0488 11.3335 20.6677V21.8346" stroke="#C0DEFF" stroke-width="2" stroke-linecap="round" stroke-linejoin="round"/>
<path d="M20.6667 21.8346V20.6677C20.6667 20.0488 20.9126 19.4552 21.3503 19.0175C21.7879 18.5799 22.3815 18.334 23.0005 18.334H27.668C28.2869 18.334 28.8805 18.5799 29.3182 19.0175C29.7558 19.4552 30.0017 20.0488 30.0017 20.6677V21.8346" stroke="#C0DEFF" stroke-width="2" stroke-linecap="round" stroke-linejoin="round"/>
<circle cx="14.0001" cy="16.0013" r="1.33333" fill="#C0DEFF"/>
<circle cx="18.0001" cy="16.0013" r="1.33333" fill="#C0DEFF"/>
</svg>
