<svg width="32" height="32" viewBox="0 0 32 32" fill="none" xmlns="http://www.w3.org/2000/svg">
<path fill-rule="evenodd" clip-rule="evenodd" d="M16 32C24.8366 32 32 24.8366 32 16C32 7.16344 24.8366 0 16 0C7.16344 0 0 7.16344 0 16C0 24.8366 7.16344 32 16 32ZM23.4785 8L17.5222 15.1983H17.5218L24 25H19.2356L14.8732 18.3996L9.41155 25H8L14.2466 17.4514L8 8H12.7644L16.8952 14.2502L22.0671 8H23.4785ZM14.956 16.5936L15.5889 17.5347V17.5351L19.8997 23.9455H22.0677L16.7851 16.0896L16.1522 15.1484L12.0882 9.10473H9.92015L14.956 16.5936Z" fill="#4DA2FF"/>
</svg>
