<svg width="72" height="72" viewBox="0 0 72 72" fill="none" xmlns="http://www.w3.org/2000/svg">
<rect width="72" height="72" rx="36" fill="#011829"/>
<path fill-rule="evenodd" clip-rule="evenodd" d="M46.0866 32.3088C47.8384 34.5084 48.886 37.2901 48.886 40.316C48.886 43.3419 47.8066 46.2086 46.0087 48.4205L45.853 48.6116L45.8123 48.3692C45.7769 48.1639 45.7362 47.9551 45.6884 47.7463C44.7877 43.7896 41.8538 40.3974 37.0248 37.6493C33.7635 35.7984 31.8966 33.5723 31.4065 31.0401C31.0897 29.4032 31.3251 27.7593 31.7798 26.3508C32.2346 24.944 32.9106 23.7637 33.4857 23.0541L35.3649 20.7573C35.6941 20.3538 36.3116 20.3538 36.6408 20.7573L46.0883 32.3088H46.0866ZM49.0576 30.0137L36.4656 14.6187C36.2249 14.325 35.7755 14.325 35.5348 14.6187L22.9445 30.0137L22.9038 30.0651C20.5875 32.9406 19.2002 36.5947 19.2002 40.5726C19.2002 49.8361 26.7225 57.3461 36.0002 57.3461C45.2779 57.3461 52.8002 49.8361 52.8002 40.5726C52.8002 36.5947 51.4129 32.9406 49.0965 30.0668L49.0558 30.0155L49.0576 30.0137ZM25.9581 32.2593L27.0835 30.8808L27.1171 31.1356C27.1437 31.3374 27.1773 31.5391 27.2162 31.7426C27.9453 35.5666 30.5482 38.7535 34.8995 41.222C38.6828 43.3755 40.8859 45.8511 41.5194 48.5656C41.7848 49.6981 41.8308 50.8129 41.7158 51.7879L41.7087 51.8481L41.6539 51.8746C39.9463 52.7081 38.0263 53.177 35.9984 53.177C28.8831 53.177 23.1144 47.4189 23.1144 40.3142C23.1144 37.2636 24.1779 34.4624 25.9545 32.2558L25.9581 32.2593Z" fill="white"/>
</svg>
