<svg width="32" height="32" viewBox="0 0 32 32" fill="none" xmlns="http://www.w3.org/2000/svg">
<path d="M16 0.00012207C7.16337 0.00012207 0 7.16351 0 16.0001C0 24.8367 7.16337 32.0001 16 32.0001C24.8366 32.0001 32 24.8367 32 16.0001C31.9999 7.16351 24.8364 0.00012207 16 0.00012207ZM11.7311 23.7354H8.21819V12.386H11.7311V23.7354ZM9.95793 10.8997C8.81063 10.8997 7.88055 9.96205 7.88055 8.80557C7.88055 7.64895 8.81076 6.71135 9.95793 6.71135C11.1051 6.71135 12.0352 7.64895 12.0352 8.80557C12.0352 9.96212 11.1052 10.8997 9.95793 10.8997ZM24.8959 23.7354H21.4V17.7779C21.4 16.1439 20.7794 15.2319 19.4873 15.2319C18.0812 15.2319 17.3466 16.1818 17.3466 17.7779V23.7354H13.9773V12.386H17.3466V13.9146C17.3466 13.9146 18.3601 12.0398 20.7666 12.0398C23.1732 12.0398 24.896 13.5093 24.896 16.5491L24.8959 23.7354Z" fill="#ABBDCC"/>
</svg>
