<svg width="32" height="32" viewBox="0 0 32 32" fill="none" xmlns="http://www.w3.org/2000/svg">
<path fill-rule="evenodd" clip-rule="evenodd" d="M16 32.0001C24.8366 32.0001 32 24.8367 32 16.0001C32 7.16357 24.8366 0.00012207 16 0.00012207C7.16345 0.00012207 0 7.16357 0 16.0001C0 24.8367 7.16345 32.0001 16 32.0001ZM12.4216 22.5898L16.2654 22.66C16.2715 22.66 16.2838 22.66 16.2837 22.6695C18.4242 22.7094 20.5097 22.584 22.6442 22.4283C24.3478 22.3092 24.7515 21.0754 24.9625 19.6042C25.2255 17.8273 25.2836 16.0291 25.146 14.2401C25.1394 14.1552 25.133 14.0697 25.1265 13.9835C24.9983 12.2717 24.8541 10.3479 22.8277 9.99327C22.3965 9.9169 21.9562 9.8498 21.519 9.83753C17.3786 9.70362 13.2014 9.66961 9.05176 9.95663C7.82251 10.0357 7.02764 10.7625 6.82566 11.9805C6.46788 14.1512 6.39448 16.3799 6.58407 18.5689C6.58644 18.5957 6.5888 18.6226 6.59117 18.6495C6.7267 20.1893 6.88506 21.9887 8.70927 22.3608C9.69137 22.5647 10.6913 22.5729 11.6931 22.5811C11.9359 22.5831 12.1788 22.585 12.4216 22.5898ZM16.0006 17.791C15.3384 18.171 14.6747 18.5518 14.0056 18.9353V13.446C14.7432 13.8684 15.4755 14.2888 16.2087 14.7097C17.0653 15.2014 17.923 15.6938 18.7913 16.1907C17.8572 16.7256 16.9304 17.2574 16.0006 17.791Z" fill="#ABBDCC"/>
</svg>
