<svg width="32" height="32" viewBox="0 0 32 32" fill="none" xmlns="http://www.w3.org/2000/svg">
<path fill-rule="evenodd" clip-rule="evenodd" d="M16 32.0001C24.8366 32.0001 32 24.8367 32 16.0001C32 7.16357 24.8366 0.00012207 16 0.00012207C7.16344 0.00012207 0 7.16357 0 16.0001C0 24.8367 7.16344 32.0001 16 32.0001ZM23.4785 8.00012L17.5222 15.1985H17.5218L24 25.0001H19.2356L14.8732 18.3997L9.41155 25.0001H8L14.2466 17.4516L8 8.00012H12.7644L16.8952 14.2503L22.0671 8.00012H23.4785ZM14.956 16.5937L15.5889 17.5348V17.5352L19.8997 23.9456H22.0677L16.7851 16.0897L16.1522 15.1486L12.0882 9.10485H9.92015L14.956 16.5937Z" fill="#ABBDCC"/>
</svg>
