<svg width="32" height="32" viewBox="0 0 32 32" fill="none" xmlns="http://www.w3.org/2000/svg">
<path fill-rule="evenodd" clip-rule="evenodd" d="M16 32.0001C24.8366 32.0001 32 24.8367 32 16.0001C32 7.16357 24.8366 0.00012207 16 0.00012207C7.16344 0.00012207 0 7.16357 0 16.0001C0 24.8367 7.16344 32.0001 16 32.0001ZM18.519 8.80997C19.7766 9.02907 20.9792 9.41437 22.1012 9.93567C22.111 9.93969 22.1191 9.9472 22.1239 9.95683C24.1119 12.9199 25.0931 16.2638 24.7265 20.1123C24.7256 20.1205 24.7231 20.1283 24.719 20.1353C24.715 20.1424 24.7095 20.1484 24.703 20.1531C23.3695 21.154 21.8815 21.9155 20.3017 22.4053C20.2905 22.4087 20.2786 22.4085 20.2676 22.4048C20.2566 22.401 20.247 22.3938 20.2401 22.3841C19.9079 21.915 19.6057 21.4209 19.3418 20.9018C19.3382 20.8947 19.3361 20.8868 19.3357 20.8788C19.3352 20.8707 19.3365 20.8627 19.3394 20.8552C19.3422 20.8477 19.3466 20.8409 19.3522 20.8352C19.3578 20.8296 19.3645 20.8253 19.3718 20.8225C19.8507 20.6397 20.3068 20.4198 20.7453 20.1599C20.7531 20.1551 20.7597 20.1484 20.7644 20.1404C20.769 20.1324 20.7717 20.1233 20.7722 20.1139C20.7726 20.1046 20.7708 20.0953 20.7669 20.0868C20.7629 20.0783 20.757 20.071 20.7497 20.0655C20.6566 19.9952 20.5649 19.9219 20.4769 19.8479C20.4689 19.8413 20.4591 19.8372 20.4489 19.836C20.4387 19.8347 20.4283 19.8365 20.419 19.8411C17.573 21.1738 14.4542 21.1738 11.5745 19.8411C11.5652 19.8368 11.555 19.8352 11.5449 19.8365C11.5348 19.8379 11.5252 19.8421 11.5173 19.8487C11.4293 19.9219 11.3369 19.9952 11.2445 20.0655C11.2373 20.0711 11.2315 20.0786 11.2277 20.0871C11.2239 20.0956 11.2222 20.105 11.2228 20.1143C11.2233 20.1237 11.2262 20.1328 11.231 20.1407C11.2358 20.1487 11.2425 20.1553 11.2504 20.1599C11.6904 20.4177 12.1494 20.6395 12.6231 20.8233C12.6305 20.8259 12.6372 20.8302 12.6428 20.8357C12.6484 20.8413 12.6527 20.848 12.6556 20.8555C12.6584 20.8629 12.6597 20.8709 12.6593 20.8789C12.6589 20.8869 12.6568 20.8947 12.6532 20.9018C12.3943 21.4212 12.0935 21.9173 11.7542 22.3849C11.747 22.3942 11.7373 22.401 11.7263 22.4045C11.7153 22.408 11.7036 22.408 11.6926 22.4045C10.1155 21.9133 8.62981 21.1522 7.29783 20.1531C7.2915 20.1482 7.28623 20.1419 7.28232 20.1348C7.27841 20.1276 7.27595 20.1197 7.2751 20.1116C6.96784 16.7828 7.59336 13.4118 9.87542 9.95532C9.88104 9.94621 9.88923 9.93909 9.89889 9.93492C11.0216 9.41286 12.2242 9.02755 13.4811 8.80846C13.4925 8.8066 13.5041 8.80836 13.5144 8.81349C13.5248 8.81862 13.5334 8.82688 13.5391 8.83717C13.7065 9.13803 13.8576 9.44827 13.9915 9.76644C15.3253 9.56112 16.6814 9.56112 18.0152 9.76644C18.1355 9.47935 18.307 9.11595 18.461 8.83717C18.4668 8.827 18.4754 8.81893 18.4858 8.81405C18.4962 8.80918 18.5078 8.80775 18.519 8.80997ZM11.5019 16.2865C11.5019 17.2769 12.2169 18.0846 13.0837 18.0846C13.9644 18.0846 14.6654 17.2777 14.6654 16.2865C14.6794 15.302 13.971 14.4883 13.0837 14.4883C12.203 14.4883 11.5019 15.2952 11.5019 16.2865ZM17.3501 16.2865C17.3501 17.2769 18.0643 18.0846 18.9318 18.0846C19.8199 18.0846 20.5136 17.2777 20.5136 16.2865C20.5275 15.302 19.8191 14.4883 18.9318 14.4883C18.0504 14.4883 17.3501 15.2952 17.3501 16.2865Z" fill="#ABBDCC"/>
</svg>
