<svg width="16" height="14" viewBox="0 0 16 14" fill="none" xmlns="http://www.w3.org/2000/svg">
<circle cx="6.10749" cy="8.48738" r="4.77937" stroke="#ABBDCC"/>
<path fill-rule="evenodd" clip-rule="evenodd" d="M6.23813 3.2861C6.98975 2.05566 8.34532 1.23438 9.8927 1.23438C12.2561 1.23438 14.1721 3.15031 14.1721 5.51374C14.1721 7.42329 12.9214 9.04072 11.1944 9.59153C11.1098 9.98367 10.9809 10.3594 10.8133 10.7131C13.2901 10.2776 15.1721 8.11544 15.1721 5.51374C15.1721 2.59803 12.8084 0.234375 9.8927 0.234375C7.73224 0.234375 5.87488 1.53211 5.05762 3.39059C5.39692 3.32104 5.74826 3.28451 6.10813 3.28451C6.15159 3.28451 6.19493 3.28504 6.23813 3.2861Z" fill="#ABBDCC"/>
<rect x="6.10742" y="6.95932" width="2.16036" height="2.16036" transform="rotate(45 6.10742 6.95932)" fill="#ABBDCC"/>
</svg>
