<svg width="16" height="16" viewBox="0 0 16 16" fill="none" xmlns="http://www.w3.org/2000/svg">
<path d="M2.16602 6.24988C2.16602 6.55935 2.28895 6.85615 2.50778 7.07498C2.72661 7.29381 3.02341 7.41675 3.33289 7.41675C3.64236 7.41675 3.93916 7.29381 4.15799 7.07498C4.37682 6.85615 4.49976 6.55935 4.49976 6.24988C4.49976 5.9404 4.37682 5.64361 4.15799 5.42478C3.93916 5.20595 3.64236 5.08301 3.33289 5.08301C3.02341 5.08301 2.72661 5.20595 2.50778 5.42478C2.28895 5.64361 2.16602 5.9404 2.16602 6.24988Z" stroke="#ABBDCC" stroke-linecap="round" stroke-linejoin="round"/>
<path d="M11.5 6.24988C11.5 6.55935 11.6229 6.85615 11.8418 7.07498C12.0606 7.29381 12.3574 7.41675 12.6669 7.41675C12.9763 7.41675 13.2731 7.29381 13.492 7.07498C13.7108 6.85615 13.8337 6.55935 13.8337 6.24988C13.8337 5.9404 13.7108 5.64361 13.492 5.42478C13.2731 5.20595 12.9763 5.08301 12.6669 5.08301C12.3574 5.08301 12.0606 5.20595 11.8418 5.42478C11.6229 5.64361 11.5 5.9404 11.5 6.24988Z" stroke="#ABBDCC" stroke-linecap="round" stroke-linejoin="round"/>
<path d="M0.999023 10.9173V10.3339C0.999023 10.0244 1.12196 9.72759 1.34079 9.50876C1.55962 9.28993 1.85642 9.16699 2.16589 9.16699H4.49963C4.80911 9.16699 5.1059 9.28993 5.32474 9.50876C5.54357 9.72759 5.6665 10.0244 5.6665 10.3339V10.9173" stroke="#ABBDCC" stroke-linecap="round" stroke-linejoin="round"/>
<path d="M10.333 10.9173V10.3339C10.333 10.0244 10.4559 9.72759 10.6748 9.50876C10.8936 9.28993 11.1904 9.16699 11.4999 9.16699H13.8336C14.1431 9.16699 14.4399 9.28993 14.6587 9.50876C14.8776 9.72759 15.0005 10.0244 15.0005 10.3339V10.9173" stroke="#ABBDCC" stroke-linecap="round" stroke-linejoin="round"/>
<circle cx="6.99967" cy="8.00032" r="0.666667" fill="#ABBDCC"/>
<circle cx="8.99967" cy="8.00032" r="0.666667" fill="#ABBDCC"/>
</svg>
