<svg width="16" height="16" viewBox="0 0 16 16" fill="none" xmlns="http://www.w3.org/2000/svg">
<circle cx="8.00023" cy="12.8557" r="1.40745" stroke="#ABBDCC"/>
<path d="M9.39941 12.9525H11.1721C12.2042 12.9525 13.0409 12.1158 13.0409 11.0836V11.0836" stroke="#ABBDCC"/>
<path d="M12.9426 6.97421C12.9426 6.29743 12.8151 5.62728 12.5673 5.00202C12.3195 4.37676 11.9563 3.80864 11.4985 3.33008C11.0406 2.85153 10.497 2.47192 9.89879 2.21293C9.30055 1.95394 8.65937 1.82064 8.01185 1.82064C7.36433 1.82064 6.72315 1.95394 6.12492 2.21293C5.52669 2.47192 4.98312 2.85153 4.52525 3.33008C4.06738 3.80864 3.70418 4.37676 3.45639 5.00202C3.20859 5.62729 3.08105 6.29744 3.08105 6.97421" stroke="#ABBDCC"/>
<path d="M12.4062 6.6333H13.0101C13.8385 6.6333 14.5101 7.30487 14.5101 8.1333V9.72416C14.5101 10.5526 13.8385 11.2242 13.0101 11.2242H12.4063C12.1301 11.2242 11.9062 11.0003 11.9062 10.7242V7.1333C11.9062 6.85716 12.1301 6.6333 12.4062 6.6333Z" stroke="#ABBDCC"/>
<path d="M2.98926 6.6333H3.59308C3.86922 6.6333 4.09308 6.85716 4.09308 7.1333V10.7242C4.09308 11.0003 3.86922 11.2242 3.59308 11.2242H2.98926C2.16083 11.2242 1.48926 10.5526 1.48926 9.72416V8.1333C1.48926 7.30487 2.16083 6.6333 2.98926 6.6333Z" stroke="#ABBDCC"/>
</svg>
