<svg width="14" height="12" viewBox="0 0 14 12" fill="none" xmlns="http://www.w3.org/2000/svg">
<path d="M2.7087 1.81851C2.88942 1.51731 3.21493 1.33301 3.56619 1.33301H10.4338C10.7851 1.33301 11.1106 1.51731 11.2913 1.81851L12.6208 4.03433C12.8463 4.41014 12.8008 4.889 12.5085 5.21562L7.33333 10.9997C7.28988 11.044 7.23802 11.0793 7.18078 11.1033C7.12355 11.1274 7.06209 11.1397 7 11.1397C6.93792 11.1397 6.87645 11.1274 6.81922 11.1033C6.76198 11.0793 6.71012 11.044 6.66667 10.9997L1.49146 5.21562C1.19922 4.889 1.15372 4.41015 1.37921 4.03433L2.7087 1.81851Z" stroke="#ABBDCC" stroke-linecap="round" stroke-linejoin="round"/>
<path d="M5.66732 5.99954L4.33398 4.53288L4.73398 3.86621" stroke="#ABBDCC" stroke-linecap="round" stroke-linejoin="round"/>
</svg>
