<svg width="16" height="16" viewBox="0 0 16 16" fill="none" xmlns="http://www.w3.org/2000/svg">
<path d="M6.66699 3.33333C6.66699 2.59695 7.26395 2 8.00033 2V2C8.73671 2 9.33366 2.59695 9.33366 3.33333V3.33333C9.33366 4.06971 8.73671 4.66667 8.00033 4.66667V4.66667C7.26395 4.66667 6.66699 4.06971 6.66699 3.33333V3.33333Z" stroke="#ABBDCC" stroke-linecap="round" stroke-linejoin="round"/>
<path d="M2 12.6667C2 11.9303 2.59695 11.3333 3.33333 11.3333V11.3333C4.06971 11.3333 4.66667 11.9303 4.66667 12.6667V12.6667C4.66667 13.4031 4.06971 14 3.33333 14V14C2.59695 14 2 13.4031 2 12.6667V12.6667Z" stroke="#ABBDCC" stroke-linecap="round" stroke-linejoin="round"/>
<path d="M11.333 12.6667C11.333 11.9303 11.93 11.3333 12.6663 11.3333V11.3333C13.4027 11.3333 13.9997 11.9303 13.9997 12.6667V12.6667C13.9997 13.4031 13.4027 14 12.6663 14V14C11.93 14 11.333 13.4031 11.333 12.6667V12.6667Z" stroke="#ABBDCC" stroke-linecap="round" stroke-linejoin="round"/>
<path d="M4.66699 11.3333L8.00033 8.66666L11.3337 11.3333" stroke="#ABBDCC" stroke-linecap="round" stroke-linejoin="round"/>
<path d="M8 4.66666V8.66666" stroke="#ABBDCC" stroke-linecap="round" stroke-linejoin="round"/>
</svg>
