<svg width="16" height="16" viewBox="0 0 16 16" fill="none" xmlns="http://www.w3.org/2000/svg">
<path d="M4 6C4 7.06087 4.42143 8.07828 5.17157 8.82843C5.92172 9.57857 6.93913 10 8 10C9.06087 10 10.0783 9.57857 10.8284 8.82843C11.5786 8.07828 12 7.06087 12 6C12 4.93913 11.5786 3.92172 10.8284 3.17157C10.0783 2.42143 9.06087 2 8 2C6.93913 2 5.92172 2.42143 5.17157 3.17157C4.42143 3.92172 4 4.93913 4 6Z" stroke="#ABBDCC" stroke-linecap="round" stroke-linejoin="round"/>
<path d="M8 10L10.2667 13.9267L11.332 11.7713L13.7307 11.926L11.464 8" stroke="#ABBDCC" stroke-linecap="round" stroke-linejoin="round"/>
<path d="M4.53522 8L2.26855 11.9267L4.66722 11.7713L5.73255 13.926L7.99922 10" stroke="#ABBDCC" stroke-linecap="round" stroke-linejoin="round"/>
</svg>
