<svg width="16" height="16" viewBox="0 0 16 16" fill="none" xmlns="http://www.w3.org/2000/svg">
<path d="M9.44043 1.51965V4.39981C9.44043 4.59077 9.51629 4.77392 9.65132 4.90895C9.78636 5.04398 9.9695 5.11985 10.1605 5.11985H13.0406" stroke="#ABBDCC" stroke-linecap="round" stroke-linejoin="round"/>
<path d="M11.6004 14.4803H4.40004C4.01811 14.4803 3.65182 14.3286 3.38175 14.0586C3.11168 13.7885 2.95996 13.4222 2.95996 13.0403V2.95973C2.95996 2.5778 3.11168 2.21151 3.38175 1.94144C3.65182 1.67138 4.01811 1.51965 4.40004 1.51965H9.44031L13.0405 5.11985V13.0403C13.0405 13.4222 12.8888 13.7885 12.6187 14.0586C12.3486 14.3286 11.9824 14.4803 11.6004 14.4803Z" stroke="#ABBDCC" stroke-linecap="round" stroke-linejoin="round"/>
<path d="M5.83984 5.83987H6.55988" stroke="#ABBDCC" stroke-linecap="round" stroke-linejoin="round"/>
<path d="M5.83984 8.72003H10.1601" stroke="#ABBDCC" stroke-linecap="round" stroke-linejoin="round"/>
<path d="M5.83984 11.6002H10.1601" stroke="#ABBDCC" stroke-linecap="round" stroke-linejoin="round"/>
</svg>
